<svg xmlns="http://www.w3.org/2000/svg" viewBox="0 0 1254 1254"><path fill="black" fill-rule="evenodd" d="M 628 725 L 622 731 L 622 732 L 615 739 L 615 740 L 609 746 L 609 747 L 604 752 L 604 753 L 598 759 L 598 760 L 593 765 L 593 766 L 588 771 L 588 772 L 582 778 L 582 779 L 577 784 L 577 785 L 571 791 L 571 792 L 564 799 L 564 800 L 562 802 L 562 803 L 563 804 L 563 805 L 565 807 L 565 808 L 567 810 L 567 811 L 569 813 L 569 814 L 571 816 L 571 817 L 572 818 L 572 819 L 574 821 L 574 822 L 576 824 L 576 825 L 577 826 L 577 827 L 579 829 L 579 830 L 581 832 L 581 833 L 583 835 L 583 836 L 585 838 L 585 839 L 586 840 L 586 841 L 588 843 L 588 844 L 590 846 L 590 847 L 592 849 L 592 850 L 593 851 L 593 852 L 595 854 L 595 855 L 597 857 L 597 858 L 598 859 L 598 860 L 600 862 L 600 863 L 602 865 L 602 866 L 604 868 L 604 869 L 605 870 L 605 871 L 607 873 L 607 874 L 609 876 L 609 877 L 610 878 L 610 879 L 612 881 L 612 882 L 614 884 L 614 885 L 615 886 L 615 887 L 617 889 L 617 890 L 619 892 L 619 893 L 621 895 L 621 896 L 622 897 L 622 898 L 624 900 L 624 901 L 626 903 L 626 904 L 628 906 L 630 904 L 630 903 L 632 901 L 632 900 L 633 899 L 633 898 L 635 896 L 635 895 L 637 893 L 637 892 L 638 891 L 638 890 L 640 888 L 640 887 L 642 885 L 642 884 L 643 883 L 643 882 L 645 880 L 645 879 L 647 877 L 647 876 L 649 874 L 649 873 L 650 872 L 650 871 L 652 869 L 652 868 L 653 867 L 653 866 L 655 864 L 655 863 L 657 861 L 657 860 L 658 859 L 658 858 L 660 856 L 660 855 L 662 853 L 662 852 L 664 850 L 664 849 L 666 847 L 666 846 L 667 845 L 667 844 L 669 842 L 669 841 L 671 839 L 671 838 L 672 837 L 672 836 L 674 834 L 674 833 L 676 831 L 676 830 L 677 829 L 677 828 L 679 826 L 679 825 L 681 823 L 681 822 L 682 821 L 682 820 L 684 818 L 684 817 L 686 815 L 686 814 L 688 812 L 688 811 L 690 809 L 690 808 L 691 807 L 691 806 L 693 804 L 693 801 L 688 796 L 688 795 L 683 790 L 683 789 L 678 784 L 678 783 L 671 776 L 671 775 L 666 770 L 666 769 L 660 763 L 660 762 L 655 757 L 655 756 L 650 751 L 650 750 L 644 744 L 644 743 L 639 738 L 639 737 L 633 731 L 633 730 Z M 832 593 L 831 594 L 830 594 L 829 595 L 828 595 L 827 596 L 826 596 L 824 598 L 823 598 L 822 599 L 821 599 L 820 600 L 819 600 L 817 602 L 816 602 L 815 603 L 814 603 L 813 604 L 812 604 L 810 606 L 809 606 L 808 607 L 807 607 L 806 608 L 805 608 L 803 610 L 802 610 L 801 611 L 800 611 L 799 612 L 798 612 L 797 613 L 796 613 L 794 615 L 793 615 L 792 616 L 791 616 L 790 617 L 789 617 L 787 619 L 786 619 L 785 620 L 784 620 L 783 621 L 782 621 L 781 622 L 780 622 L 778 624 L 777 624 L 776 625 L 775 625 L 773 627 L 772 627 L 770 629 L 769 629 L 768 630 L 767 630 L 765 632 L 764 632 L 762 634 L 761 634 L 760 635 L 759 635 L 757 637 L 756 637 L 754 639 L 753 639 L 752 640 L 751 640 L 749 642 L 748 642 L 746 644 L 745 644 L 744 645 L 743 645 L 741 647 L 740 647 L 739 648 L 738 648 L 736 650 L 735 650 L 733 652 L 732 652 L 731 653 L 730 653 L 730 654 L 731 655 L 731 656 L 733 658 L 733 659 L 744 670 L 745 670 L 747 672 L 748 672 L 750 674 L 751 674 L 752 675 L 753 675 L 754 676 L 756 676 L 757 677 L 758 677 L 759 678 L 761 678 L 762 679 L 764 679 L 765 680 L 769 680 L 770 681 L 789 681 L 790 680 L 794 680 L 795 679 L 797 679 L 798 678 L 800 678 L 801 677 L 802 677 L 803 676 L 805 676 L 806 675 L 807 675 L 809 673 L 810 673 L 811 672 L 812 672 L 815 669 L 816 669 L 826 659 L 826 658 L 829 655 L 829 654 L 830 653 L 830 652 L 832 650 L 832 649 L 833 648 L 833 646 L 834 645 L 834 644 L 835 643 L 835 641 L 836 640 L 836 638 L 837 637 L 837 634 L 838 633 L 838 627 L 839 626 L 839 615 L 838 614 L 838 608 L 837 607 L 837 604 L 836 603 L 836 600 L 835 599 L 835 598 L 834 597 L 834 595 L 833 594 L 833 593 Z M 422 593 L 422 595 L 421 596 L 421 597 L 420 598 L 420 600 L 419 601 L 419 603 L 418 604 L 418 607 L 417 608 L 417 615 L 416 616 L 416 624 L 417 625 L 417 632 L 418 633 L 418 637 L 419 638 L 419 640 L 420 641 L 420 643 L 421 644 L 421 645 L 422 646 L 422 648 L 424 650 L 424 651 L 425 652 L 425 653 L 427 655 L 427 656 L 429 658 L 429 659 L 439 669 L 440 669 L 443 672 L 444 672 L 445 673 L 446 673 L 448 675 L 450 675 L 451 676 L 452 676 L 453 677 L 454 677 L 455 678 L 457 678 L 458 679 L 461 679 L 462 680 L 465 680 L 466 681 L 485 681 L 486 680 L 490 680 L 491 679 L 493 679 L 494 678 L 496 678 L 497 677 L 499 677 L 500 676 L 501 676 L 502 675 L 503 675 L 504 674 L 505 674 L 507 672 L 508 672 L 510 670 L 511 670 L 522 659 L 522 658 L 525 655 L 525 653 L 524 653 L 522 651 L 521 651 L 520 650 L 519 650 L 517 648 L 516 648 L 515 647 L 514 647 L 512 645 L 511 645 L 509 643 L 508 643 L 507 642 L 506 642 L 504 640 L 503 640 L 501 638 L 500 638 L 499 637 L 498 637 L 496 635 L 495 635 L 493 633 L 492 633 L 491 632 L 490 632 L 488 630 L 487 630 L 485 628 L 484 628 L 483 627 L 482 627 L 480 625 L 479 625 L 477 623 L 476 623 L 475 622 L 474 622 L 473 621 L 472 621 L 471 620 L 470 620 L 468 618 L 467 618 L 466 617 L 465 617 L 464 616 L 463 616 L 461 614 L 460 614 L 459 613 L 458 613 L 457 612 L 456 612 L 454 610 L 453 610 L 452 609 L 451 609 L 450 608 L 449 608 L 448 607 L 447 607 L 445 605 L 444 605 L 443 604 L 442 604 L 441 603 L 440 603 L 438 601 L 437 601 L 436 600 L 435 600 L 433 598 L 432 598 L 431 597 L 430 597 L 429 596 L 428 596 L 427 595 L 426 595 L 425 594 L 424 594 L 423 593 Z M 323 537 L 322 538 L 322 539 L 321 540 L 321 541 L 320 542 L 320 543 L 319 544 L 319 546 L 318 547 L 318 548 L 317 549 L 317 551 L 316 552 L 316 553 L 315 554 L 315 556 L 314 557 L 314 559 L 313 560 L 313 562 L 312 563 L 312 565 L 311 566 L 311 569 L 310 570 L 310 572 L 309 573 L 309 576 L 308 577 L 308 580 L 307 581 L 307 586 L 306 587 L 306 593 L 305 594 L 305 601 L 304 602 L 304 636 L 305 637 L 305 645 L 306 646 L 306 651 L 307 652 L 307 655 L 308 656 L 308 660 L 309 661 L 309 664 L 310 665 L 310 667 L 311 668 L 311 671 L 312 672 L 312 674 L 313 675 L 313 677 L 314 678 L 314 679 L 315 680 L 315 682 L 316 683 L 316 684 L 317 685 L 317 687 L 318 688 L 318 689 L 319 690 L 319 691 L 320 692 L 320 694 L 321 695 L 321 696 L 322 697 L 322 698 L 323 699 L 323 700 L 324 701 L 324 702 L 325 703 L 325 704 L 327 706 L 327 707 L 328 708 L 328 709 L 330 711 L 330 712 L 331 713 L 331 714 L 333 716 L 333 717 L 335 719 L 335 720 L 338 723 L 338 724 L 341 727 L 341 728 L 345 732 L 345 733 L 351 739 L 351 740 L 361 750 L 362 750 L 368 756 L 369 756 L 373 760 L 374 760 L 377 763 L 378 763 L 380 765 L 381 765 L 383 767 L 384 767 L 386 769 L 387 769 L 389 771 L 390 771 L 391 772 L 392 772 L 393 773 L 394 773 L 396 775 L 397 775 L 398 776 L 399 776 L 400 777 L 401 777 L 402 778 L 403 778 L 404 779 L 406 779 L 407 780 L 408 780 L 409 781 L 410 781 L 411 782 L 413 782 L 414 783 L 415 783 L 416 784 L 418 784 L 419 785 L 421 785 L 422 786 L 424 786 L 425 787 L 427 787 L 428 788 L 431 788 L 432 789 L 435 789 L 436 790 L 440 790 L 441 791 L 445 791 L 446 792 L 453 792 L 454 793 L 463 793 L 464 794 L 479 794 L 480 793 L 489 793 L 490 792 L 496 792 L 497 791 L 501 791 L 502 790 L 505 790 L 506 789 L 509 789 L 510 788 L 512 788 L 513 787 L 516 787 L 517 786 L 519 786 L 520 785 L 521 785 L 522 784 L 524 784 L 525 783 L 526 783 L 527 782 L 528 782 L 529 781 L 531 781 L 532 780 L 533 780 L 534 779 L 535 779 L 536 778 L 537 778 L 538 777 L 539 777 L 541 775 L 542 775 L 543 774 L 544 774 L 546 772 L 547 772 L 548 771 L 549 771 L 551 769 L 552 769 L 554 767 L 555 767 L 558 764 L 559 764 L 563 760 L 564 760 L 571 753 L 572 753 L 574 751 L 574 695 L 573 694 L 572 694 L 571 693 L 570 693 L 568 691 L 567 691 L 566 690 L 564 690 L 560 694 L 560 695 L 551 704 L 550 704 L 545 709 L 544 709 L 541 712 L 540 712 L 538 714 L 537 714 L 535 716 L 534 716 L 533 717 L 532 717 L 531 718 L 530 718 L 529 719 L 528 719 L 527 720 L 526 720 L 525 721 L 524 721 L 523 722 L 522 722 L 521 723 L 520 723 L 519 724 L 517 724 L 516 725 L 514 725 L 513 726 L 511 726 L 510 727 L 508 727 L 507 728 L 504 728 L 503 729 L 500 729 L 499 730 L 493 730 L 492 731 L 466 731 L 465 730 L 459 730 L 458 729 L 454 729 L 453 728 L 450 728 L 449 727 L 447 727 L 446 726 L 443 726 L 442 725 L 441 725 L 440 724 L 438 724 L 437 723 L 436 723 L 435 722 L 434 722 L 433 721 L 431 721 L 430 720 L 429 720 L 428 719 L 427 719 L 426 718 L 425 718 L 423 716 L 422 716 L 421 715 L 420 715 L 418 713 L 417 713 L 415 711 L 414 711 L 411 708 L 410 708 L 391 689 L 391 688 L 389 686 L 389 685 L 386 682 L 386 681 L 384 679 L 384 678 L 383 677 L 383 676 L 382 675 L 382 674 L 380 672 L 380 671 L 379 670 L 379 669 L 378 668 L 378 667 L 377 666 L 377 664 L 376 663 L 376 662 L 375 661 L 375 659 L 374 658 L 374 657 L 373 656 L 373 654 L 372 653 L 372 651 L 371 650 L 371 647 L 370 646 L 370 643 L 369 642 L 369 637 L 368 636 L 368 629 L 367 628 L 367 611 L 368 610 L 368 602 L 369 601 L 369 596 L 370 595 L 370 592 L 371 591 L 371 588 L 372 587 L 372 585 L 373 584 L 373 581 L 374 580 L 374 579 L 375 578 L 375 576 L 376 575 L 376 573 L 377 572 L 377 571 L 378 570 L 378 569 L 379 568 L 378 567 L 377 567 L 375 565 L 374 565 L 373 564 L 372 564 L 371 563 L 370 563 L 369 562 L 368 562 L 366 560 L 365 560 L 364 559 L 363 559 L 362 558 L 361 558 L 360 557 L 359 557 L 357 555 L 356 555 L 355 554 L 354 554 L 353 553 L 352 553 L 350 551 L 349 551 L 348 550 L 347 550 L 346 549 L 345 549 L 344 548 L 343 548 L 341 546 L 340 546 L 339 545 L 338 545 L 337 544 L 336 544 L 335 543 L 334 543 L 332 541 L 331 541 L 330 540 L 329 540 L 328 539 L 327 539 L 325 537 Z M 932 536 L 930 538 L 929 538 L 928 539 L 927 539 L 926 540 L 925 540 L 923 542 L 922 542 L 921 543 L 920 543 L 919 544 L 918 544 L 917 545 L 916 545 L 914 547 L 913 547 L 912 548 L 911 548 L 910 549 L 909 549 L 907 551 L 906 551 L 905 552 L 904 552 L 903 553 L 902 553 L 900 555 L 899 555 L 898 556 L 897 556 L 896 557 L 895 557 L 894 558 L 893 558 L 891 560 L 890 560 L 889 561 L 888 561 L 887 562 L 886 562 L 885 563 L 884 563 L 882 565 L 881 565 L 880 566 L 879 566 L 878 567 L 877 567 L 876 568 L 877 569 L 877 570 L 878 571 L 878 573 L 879 574 L 879 575 L 880 576 L 880 578 L 881 579 L 881 580 L 882 581 L 882 583 L 883 584 L 883 587 L 884 588 L 884 591 L 885 592 L 885 595 L 886 596 L 886 601 L 887 602 L 887 611 L 888 612 L 888 626 L 887 627 L 887 634 L 886 635 L 886 640 L 885 641 L 885 645 L 884 646 L 884 649 L 883 650 L 883 652 L 882 653 L 882 655 L 881 656 L 881 658 L 880 659 L 880 660 L 879 661 L 879 663 L 878 664 L 878 665 L 877 666 L 877 667 L 876 668 L 876 669 L 875 670 L 875 671 L 874 672 L 874 673 L 873 674 L 873 675 L 871 677 L 871 678 L 870 679 L 870 680 L 868 682 L 868 683 L 865 686 L 865 687 L 862 690 L 862 691 L 847 706 L 846 706 L 842 710 L 841 710 L 838 713 L 837 713 L 835 715 L 834 715 L 833 716 L 832 716 L 831 717 L 830 717 L 829 718 L 828 718 L 826 720 L 825 720 L 824 721 L 822 721 L 821 722 L 820 722 L 819 723 L 818 723 L 817 724 L 815 724 L 814 725 L 812 725 L 811 726 L 809 726 L 808 727 L 805 727 L 804 728 L 801 728 L 800 729 L 796 729 L 795 730 L 790 730 L 789 731 L 762 731 L 761 730 L 756 730 L 755 729 L 752 729 L 751 728 L 748 728 L 747 727 L 744 727 L 743 726 L 741 726 L 740 725 L 739 725 L 738 724 L 736 724 L 735 723 L 734 723 L 733 722 L 732 722 L 731 721 L 729 721 L 728 720 L 727 720 L 725 718 L 724 718 L 723 717 L 722 717 L 721 716 L 720 716 L 718 714 L 717 714 L 715 712 L 714 712 L 710 708 L 709 708 L 704 703 L 703 703 L 699 699 L 699 698 L 691 690 L 689 690 L 687 692 L 686 692 L 684 694 L 683 694 L 682 695 L 682 751 L 688 757 L 689 757 L 695 763 L 696 763 L 699 766 L 700 766 L 702 768 L 703 768 L 705 770 L 706 770 L 708 772 L 709 772 L 710 773 L 711 773 L 713 775 L 714 775 L 715 776 L 716 776 L 718 778 L 719 778 L 720 779 L 721 779 L 722 780 L 724 780 L 725 781 L 726 781 L 727 782 L 728 782 L 729 783 L 730 783 L 731 784 L 733 784 L 734 785 L 736 785 L 737 786 L 738 786 L 739 787 L 742 787 L 743 788 L 745 788 L 746 789 L 749 789 L 750 790 L 753 790 L 754 791 L 758 791 L 759 792 L 764 792 L 765 793 L 774 793 L 775 794 L 790 794 L 791 793 L 801 793 L 802 792 L 808 792 L 809 791 L 814 791 L 815 790 L 819 790 L 820 789 L 822 789 L 823 788 L 826 788 L 827 787 L 829 787 L 830 786 L 833 786 L 834 785 L 836 785 L 837 784 L 838 784 L 839 783 L 841 783 L 842 782 L 843 782 L 844 781 L 846 781 L 847 780 L 848 780 L 849 779 L 850 779 L 851 778 L 852 778 L 853 777 L 854 777 L 855 776 L 856 776 L 857 775 L 858 775 L 859 774 L 860 774 L 861 773 L 862 773 L 863 772 L 864 772 L 866 770 L 867 770 L 868 769 L 869 769 L 871 767 L 872 767 L 874 765 L 875 765 L 877 763 L 878 763 L 881 760 L 882 760 L 886 756 L 887 756 L 894 749 L 895 749 L 904 740 L 904 739 L 911 732 L 911 731 L 915 727 L 915 726 L 917 724 L 917 723 L 920 720 L 920 719 L 922 717 L 922 716 L 923 715 L 923 714 L 925 712 L 925 711 L 927 709 L 927 708 L 928 707 L 928 706 L 930 704 L 930 703 L 931 702 L 931 701 L 932 700 L 932 699 L 933 698 L 933 697 L 934 696 L 934 695 L 935 694 L 935 692 L 936 691 L 936 690 L 937 689 L 937 688 L 938 687 L 938 686 L 939 685 L 939 683 L 940 682 L 940 680 L 941 679 L 941 677 L 942 676 L 942 675 L 943 674 L 943 672 L 944 671 L 944 668 L 945 667 L 945 665 L 946 664 L 946 661 L 947 660 L 947 656 L 948 655 L 948 651 L 949 650 L 949 644 L 950 643 L 950 635 L 951 634 L 951 602 L 950 601 L 950 594 L 949 593 L 949 587 L 948 586 L 948 581 L 947 580 L 947 577 L 946 576 L 946 573 L 945 572 L 945 569 L 944 568 L 944 565 L 943 564 L 943 562 L 942 561 L 942 559 L 941 558 L 941 556 L 940 555 L 940 554 L 939 553 L 939 551 L 938 550 L 938 548 L 937 547 L 937 546 L 936 545 L 936 544 L 935 543 L 935 541 L 934 540 L 934 539 L 933 538 L 933 537 Z M 232 355 L 234 357 L 234 358 L 235 359 L 235 360 L 236 361 L 236 362 L 238 364 L 238 365 L 239 366 L 239 367 L 241 369 L 241 370 L 242 371 L 242 372 L 243 373 L 243 374 L 244 375 L 244 376 L 246 378 L 246 379 L 247 380 L 247 381 L 249 383 L 249 384 L 250 385 L 250 386 L 252 388 L 252 389 L 253 390 L 253 391 L 254 392 L 254 393 L 256 395 L 256 396 L 257 397 L 257 398 L 259 400 L 259 401 L 260 402 L 260 403 L 262 405 L 262 406 L 263 407 L 263 408 L 264 409 L 264 410 L 266 412 L 266 413 L 267 414 L 267 415 L 269 417 L 269 418 L 270 419 L 270 420 L 272 422 L 272 423 L 273 424 L 273 425 L 274 426 L 274 427 L 276 429 L 276 430 L 277 431 L 277 432 L 279 434 L 279 435 L 280 436 L 280 437 L 281 438 L 281 439 L 283 441 L 283 442 L 284 443 L 284 444 L 286 446 L 286 447 L 287 448 L 287 449 L 288 450 L 288 451 L 290 453 L 290 454 L 291 455 L 291 456 L 293 458 L 293 459 L 294 460 L 294 461 L 295 462 L 295 463 L 297 465 L 297 466 L 299 468 L 299 469 L 300 470 L 300 471 L 301 472 L 301 473 L 303 475 L 303 476 L 304 477 L 304 478 L 305 479 L 305 480 L 307 482 L 307 483 L 309 485 L 310 485 L 312 487 L 313 487 L 314 488 L 315 488 L 317 490 L 318 490 L 319 491 L 320 491 L 322 493 L 323 493 L 324 494 L 325 494 L 327 496 L 328 496 L 329 497 L 330 497 L 331 498 L 332 498 L 334 500 L 335 500 L 336 501 L 337 501 L 339 503 L 340 503 L 341 504 L 342 504 L 344 506 L 345 506 L 346 507 L 347 507 L 349 509 L 350 509 L 351 510 L 352 510 L 354 512 L 355 512 L 356 513 L 357 513 L 359 515 L 360 515 L 361 516 L 362 516 L 363 517 L 364 517 L 366 519 L 367 519 L 368 520 L 369 520 L 371 522 L 372 522 L 373 523 L 374 523 L 376 525 L 377 525 L 378 526 L 379 526 L 381 528 L 382 528 L 383 529 L 384 529 L 386 531 L 387 531 L 388 532 L 389 532 L 391 534 L 392 534 L 393 535 L 394 535 L 396 537 L 397 537 L 398 538 L 399 538 L 400 539 L 401 539 L 403 541 L 404 541 L 405 542 L 406 542 L 408 544 L 409 544 L 410 545 L 411 545 L 413 547 L 414 547 L 415 548 L 416 548 L 418 550 L 419 550 L 420 551 L 421 551 L 423 553 L 424 553 L 425 554 L 426 554 L 428 556 L 429 556 L 430 557 L 431 557 L 433 559 L 434 559 L 435 560 L 436 560 L 438 562 L 439 562 L 440 563 L 441 563 L 443 565 L 444 565 L 445 566 L 446 566 L 448 568 L 449 568 L 450 569 L 451 569 L 453 571 L 454 571 L 455 572 L 456 572 L 458 574 L 459 574 L 460 575 L 461 575 L 463 577 L 464 577 L 465 578 L 466 578 L 468 580 L 469 580 L 470 581 L 471 581 L 473 583 L 474 583 L 475 584 L 476 584 L 478 586 L 479 586 L 480 587 L 481 587 L 483 589 L 484 589 L 485 590 L 486 590 L 488 592 L 489 592 L 490 593 L 491 593 L 493 595 L 494 595 L 495 596 L 496 596 L 498 598 L 499 598 L 500 599 L 501 599 L 503 601 L 504 601 L 506 603 L 507 603 L 508 604 L 509 604 L 511 606 L 512 606 L 513 607 L 514 607 L 516 609 L 517 609 L 518 610 L 519 610 L 521 612 L 522 612 L 523 613 L 524 613 L 526 615 L 527 615 L 529 617 L 530 617 L 531 618 L 532 618 L 534 620 L 535 620 L 536 621 L 537 621 L 539 623 L 540 623 L 541 624 L 542 624 L 544 626 L 545 626 L 546 627 L 547 627 L 549 629 L 550 629 L 551 630 L 552 630 L 554 632 L 555 632 L 557 634 L 558 634 L 559 635 L 560 635 L 562 637 L 563 637 L 564 638 L 565 638 L 567 640 L 568 640 L 569 641 L 570 641 L 572 643 L 573 643 L 574 644 L 575 644 L 577 646 L 578 646 L 579 647 L 580 647 L 582 649 L 583 649 L 584 650 L 585 650 L 587 652 L 588 652 L 589 653 L 590 653 L 592 655 L 593 655 L 594 656 L 595 656 L 597 658 L 598 658 L 599 659 L 600 659 L 602 661 L 603 661 L 604 662 L 605 662 L 607 664 L 608 664 L 610 666 L 611 666 L 612 667 L 613 667 L 615 669 L 616 669 L 617 670 L 618 670 L 620 672 L 621 672 L 622 673 L 623 673 L 625 675 L 626 675 L 627 676 L 629 676 L 630 675 L 631 675 L 633 673 L 634 673 L 635 672 L 636 672 L 638 670 L 639 670 L 640 669 L 641 669 L 643 667 L 644 667 L 645 666 L 646 666 L 648 664 L 649 664 L 651 662 L 652 662 L 653 661 L 654 661 L 656 659 L 657 659 L 658 658 L 659 658 L 661 656 L 662 656 L 663 655 L 664 655 L 666 653 L 667 653 L 668 652 L 669 652 L 671 650 L 672 650 L 673 649 L 674 649 L 676 647 L 677 647 L 679 645 L 680 645 L 681 644 L 682 644 L 684 642 L 685 642 L 686 641 L 687 641 L 688 640 L 689 640 L 691 638 L 692 638 L 694 636 L 695 636 L 696 635 L 697 635 L 699 633 L 700 633 L 701 632 L 702 632 L 704 630 L 705 630 L 706 629 L 707 629 L 709 627 L 710 627 L 711 626 L 712 626 L 714 624 L 715 624 L 716 623 L 717 623 L 719 621 L 720 621 L 721 620 L 722 620 L 724 618 L 725 618 L 726 617 L 727 617 L 729 615 L 730 615 L 732 613 L 733 613 L 734 612 L 735 612 L 737 610 L 738 610 L 739 609 L 740 609 L 742 607 L 743 607 L 744 606 L 745 606 L 747 604 L 748 604 L 749 603 L 750 603 L 752 601 L 753 601 L 755 599 L 756 599 L 757 598 L 758 598 L 760 596 L 761 596 L 762 595 L 763 595 L 765 593 L 766 593 L 767 592 L 768 592 L 770 590 L 771 590 L 772 589 L 773 589 L 775 587 L 776 587 L 777 586 L 778 586 L 780 584 L 781 584 L 782 583 L 783 583 L 785 581 L 786 581 L 787 580 L 788 580 L 790 578 L 791 578 L 792 577 L 793 577 L 795 575 L 796 575 L 797 574 L 798 574 L 800 572 L 801 572 L 802 571 L 803 571 L 805 569 L 806 569 L 807 568 L 808 568 L 810 566 L 811 566 L 812 565 L 813 565 L 815 563 L 816 563 L 817 562 L 818 562 L 820 560 L 821 560 L 822 559 L 823 559 L 825 557 L 826 557 L 827 556 L 828 556 L 830 554 L 831 554 L 832 553 L 833 553 L 835 551 L 836 551 L 837 550 L 838 550 L 840 548 L 841 548 L 842 547 L 843 547 L 845 545 L 846 545 L 847 544 L 848 544 L 850 542 L 851 542 L 852 541 L 853 541 L 855 539 L 856 539 L 857 538 L 858 538 L 860 536 L 861 536 L 862 535 L 863 535 L 865 533 L 866 533 L 867 532 L 868 532 L 869 531 L 870 531 L 872 529 L 873 529 L 874 528 L 875 528 L 877 526 L 878 526 L 879 525 L 880 525 L 882 523 L 883 523 L 884 522 L 885 522 L 887 520 L 888 520 L 889 519 L 890 519 L 892 517 L 893 517 L 894 516 L 895 516 L 897 514 L 898 514 L 899 513 L 900 513 L 901 512 L 902 512 L 904 510 L 905 510 L 906 509 L 907 509 L 909 507 L 910 507 L 911 506 L 912 506 L 914 504 L 915 504 L 916 503 L 917 503 L 919 501 L 920 501 L 921 500 L 922 500 L 924 498 L 925 498 L 926 497 L 927 497 L 928 496 L 929 496 L 931 494 L 932 494 L 933 493 L 934 493 L 936 491 L 937 491 L 938 490 L 939 490 L 941 488 L 942 488 L 943 487 L 944 487 L 945 486 L 946 486 L 948 484 L 949 484 L 949 483 L 950 482 L 950 481 L 952 479 L 952 478 L 953 477 L 953 476 L 954 475 L 954 474 L 955 473 L 955 472 L 957 470 L 957 469 L 959 467 L 959 466 L 960 465 L 960 464 L 962 462 L 962 461 L 963 460 L 963 459 L 964 458 L 964 457 L 965 456 L 965 455 L 967 453 L 967 452 L 968 451 L 968 450 L 970 448 L 970 447 L 971 446 L 971 445 L 973 443 L 973 442 L 974 441 L 974 440 L 976 438 L 976 437 L 977 436 L 977 435 L 978 434 L 978 433 L 980 431 L 980 430 L 981 429 L 981 428 L 983 426 L 983 425 L 984 424 L 984 423 L 985 422 L 985 421 L 987 419 L 987 418 L 988 417 L 988 416 L 990 414 L 990 413 L 991 412 L 991 411 L 993 409 L 993 408 L 994 407 L 994 406 L 995 405 L 995 404 L 997 402 L 997 401 L 998 400 L 998 399 L 1000 397 L 1000 396 L 1001 395 L 1001 394 L 1002 393 L 1002 392 L 1004 390 L 1004 389 L 1005 388 L 1005 387 L 1007 385 L 1007 384 L 1008 383 L 1008 382 L 1009 381 L 1009 380 L 1011 378 L 1011 377 L 1012 376 L 1012 375 L 1013 374 L 1013 373 L 1015 371 L 1015 370 L 1016 369 L 1016 368 L 1018 366 L 1018 365 L 1019 364 L 1019 363 L 1020 362 L 1020 361 L 1022 359 L 1022 358 L 1023 357 L 1023 356 L 1024 355 L 1023 355 L 1022 356 L 1020 356 L 1019 357 L 1018 357 L 1017 358 L 1015 358 L 1014 359 L 1013 359 L 1012 360 L 1010 360 L 1009 361 L 1008 361 L 1007 362 L 1005 362 L 1004 363 L 1003 363 L 1002 364 L 1000 364 L 999 365 L 998 365 L 997 366 L 995 366 L 994 367 L 993 367 L 992 368 L 990 368 L 989 369 L 988 369 L 987 370 L 985 370 L 984 371 L 983 371 L 982 372 L 980 372 L 979 373 L 978 373 L 977 374 L 975 374 L 974 375 L 973 375 L 972 376 L 970 376 L 969 377 L 968 377 L 967 378 L 965 378 L 964 379 L 963 379 L 962 380 L 960 380 L 959 381 L 958 381 L 957 382 L 956 382 L 955 383 L 953 383 L 952 384 L 951 384 L 950 385 L 948 385 L 947 386 L 946 386 L 945 387 L 943 387 L 942 388 L 941 388 L 940 389 L 938 389 L 937 390 L 936 390 L 935 391 L 933 391 L 932 392 L 931 392 L 930 393 L 928 393 L 927 394 L 926 394 L 925 395 L 923 395 L 922 396 L 921 396 L 920 397 L 918 397 L 917 398 L 916 398 L 915 399 L 913 399 L 912 400 L 911 400 L 910 401 L 909 401 L 908 402 L 906 402 L 905 403 L 903 403 L 902 404 L 901 404 L 900 405 L 898 405 L 897 406 L 896 406 L 895 407 L 894 407 L 893 408 L 891 408 L 890 409 L 889 409 L 888 410 L 886 410 L 885 411 L 884 411 L 883 412 L 881 412 L 880 413 L 879 413 L 878 414 L 876 414 L 875 415 L 874 415 L 873 416 L 872 416 L 871 417 L 869 417 L 868 418 L 867 418 L 866 419 L 864 419 L 863 420 L 862 420 L 861 421 L 859 421 L 858 422 L 857 422 L 856 423 L 854 423 L 853 424 L 852 424 L 851 425 L 850 425 L 849 426 L 847 426 L 846 427 L 845 427 L 844 428 L 842 428 L 841 429 L 839 429 L 838 430 L 837 430 L 836 431 L 835 431 L 834 432 L 832 432 L 831 433 L 830 433 L 829 434 L 827 434 L 826 435 L 825 435 L 824 436 L 822 436 L 821 437 L 820 437 L 819 438 L 818 438 L 817 439 L 815 439 L 814 440 L 813 440 L 812 441 L 810 441 L 809 442 L 808 442 L 807 443 L 805 443 L 804 444 L 803 444 L 802 445 L 801 445 L 800 446 L 798 446 L 797 447 L 796 447 L 795 448 L 793 448 L 792 449 L 791 449 L 790 450 L 788 450 L 787 451 L 786 451 L 785 452 L 783 452 L 782 453 L 781 453 L 780 454 L 778 454 L 777 455 L 776 455 L 775 456 L 773 456 L 772 457 L 771 457 L 770 458 L 769 458 L 768 459 L 766 459 L 765 460 L 764 460 L 763 461 L 761 461 L 760 462 L 759 462 L 758 463 L 756 463 L 755 464 L 754 464 L 753 465 L 751 465 L 750 466 L 749 466 L 745 470 L 745 471 L 734 482 L 734 483 L 723 494 L 723 495 L 710 508 L 710 509 L 699 520 L 699 521 L 688 532 L 688 533 L 676 545 L 676 546 L 667 555 L 667 556 L 657 566 L 657 567 L 647 577 L 647 578 L 638 587 L 638 588 L 628 598 L 618 588 L 618 587 L 608 577 L 608 576 L 598 566 L 598 565 L 587 554 L 587 553 L 578 544 L 578 543 L 566 531 L 566 530 L 555 519 L 555 518 L 544 507 L 544 506 L 534 496 L 534 495 L 522 483 L 522 482 L 510 470 L 510 469 L 507 466 L 506 466 L 505 465 L 503 465 L 502 464 L 501 464 L 500 463 L 498 463 L 497 462 L 496 462 L 495 461 L 493 461 L 492 460 L 491 460 L 490 459 L 488 459 L 487 458 L 486 458 L 485 457 L 483 457 L 482 456 L 481 456 L 480 455 L 479 455 L 478 454 L 476 454 L 475 453 L 474 453 L 473 452 L 471 452 L 470 451 L 469 451 L 468 450 L 467 450 L 466 449 L 464 449 L 463 448 L 462 448 L 461 447 L 459 447 L 458 446 L 457 446 L 456 445 L 455 445 L 454 444 L 452 444 L 451 443 L 450 443 L 449 442 L 447 442 L 446 441 L 445 441 L 444 440 L 442 440 L 441 439 L 440 439 L 439 438 L 437 438 L 436 437 L 435 437 L 434 436 L 433 436 L 432 435 L 430 435 L 429 434 L 428 434 L 427 433 L 425 433 L 424 432 L 423 432 L 422 431 L 420 431 L 419 430 L 418 430 L 417 429 L 415 429 L 414 428 L 413 428 L 412 427 L 410 427 L 409 426 L 408 426 L 407 425 L 406 425 L 405 424 L 403 424 L 402 423 L 401 423 L 400 422 L 398 422 L 397 421 L 396 421 L 395 420 L 393 420 L 392 419 L 391 419 L 390 418 L 388 418 L 387 417 L 386 417 L 385 416 L 383 416 L 382 415 L 381 415 L 380 414 L 379 414 L 378 413 L 376 413 L 375 412 L 374 412 L 373 411 L 371 411 L 370 410 L 369 410 L 368 409 L 366 409 L 365 408 L 364 408 L 363 407 L 361 407 L 360 406 L 359 406 L 358 405 L 357 405 L 356 404 L 354 404 L 353 403 L 352 403 L 351 402 L 349 402 L 348 401 L 347 401 L 346 400 L 344 400 L 343 399 L 342 399 L 341 398 L 339 398 L 338 397 L 337 397 L 336 396 L 334 396 L 333 395 L 332 395 L 331 394 L 329 394 L 328 393 L 327 393 L 326 392 L 324 392 L 323 391 L 322 391 L 321 390 L 319 390 L 318 389 L 317 389 L 316 388 L 314 388 L 313 387 L 312 387 L 311 386 L 309 386 L 308 385 L 307 385 L 306 384 L 304 384 L 303 383 L 302 383 L 301 382 L 299 382 L 298 381 L 297 381 L 296 380 L 295 380 L 294 379 L 292 379 L 291 378 L 289 378 L 288 377 L 287 377 L 286 376 L 284 376 L 283 375 L 282 375 L 281 374 L 279 374 L 278 373 L 277 373 L 276 372 L 274 372 L 273 371 L 272 371 L 271 370 L 270 370 L 269 369 L 267 369 L 266 368 L 265 368 L 264 367 L 262 367 L 261 366 L 260 366 L 259 365 L 257 365 L 256 364 L 254 364 L 253 363 L 252 363 L 251 362 L 249 362 L 248 361 L 247 361 L 246 360 L 245 360 L 244 359 L 242 359 L 241 358 L 240 358 L 239 357 L 237 357 L 236 356 L 234 356 L 233 355 Z "/></svg>